<?xml version="1.0" standalone="no"?>
<!DOCTYPE svg PUBLIC "-//W3C//DTD SVG 20010904//EN"
 "http://www.w3.org/TR/2001/REC-SVG-20010904/DTD/svg10.dtd">
<svg version="1.0" xmlns="http://www.w3.org/2000/svg"
 width="300.000000pt" height="309.000000pt" viewBox="0 0 300.000000 309.000000"
 preserveAspectRatio="xMidYMid meet">
<metadata>
Created by potrace 1.10, written by Peter Selinger 2001-2011
</metadata>
<g transform="translate(0.000000,309.000000) scale(0.100000,-0.100000)"
fill="#000000" stroke="none">
<path d="M1125 2781 c-50 -22 -91 -70 -104 -119 -5 -20 -11 -73 -14 -117 -4
-60 -21 -131 -70 -290 -78 -252 -76 -246 -83 -317 -6 -50 -3 -65 21 -114 21
-43 39 -63 81 -90 l54 -35 0 -84 c0 -46 -5 -87 -10 -90 -6 -3 -25 4 -42 17
-43 30 -77 48 -94 48 -19 0 -31 27 -39 85 -7 54 -33 125 -46 125 -5 0 -6 -6
-4 -12 4 -9 -9 -13 -44 -13 -39 0 -55 -5 -76 -25 -27 -25 -27 -25 -21 -135 3
-65 2 -116 -4 -125 -8 -13 -10 -12 -10 3 0 10 -5 15 -10 12 -8 -5 -7 -11 1
-21 15 -18 33 -18 49 1 9 11 16 13 24 5 5 -5 18 -10 28 -10 25 0 71 47 64 65
-2 7 2 19 10 25 8 7 14 25 14 41 0 16 5 29 10 29 9 0 14 -20 11 -46 -1 -6 12
-14 27 -17 16 -3 59 -26 97 -51 37 -25 72 -46 76 -46 5 0 9 55 9 123 l0 123
-34 12 c-50 18 -90 60 -111 116 -24 61 -19 84 76 386 66 210 70 231 70 312 -1
54 4 101 12 121 18 43 78 95 119 102 18 3 272 5 565 3 522 -3 532 -3 560 -24
52 -39 68 -80 66 -169 -2 -74 4 -100 79 -345 45 -146 83 -286 86 -312 8 -84
-55 -173 -138 -193 l-25 -6 0 -727 c0 -808 4 -763 -67 -814 l-33 -23 -556 -3
-555 -2 -34 22 c-18 13 -43 36 -54 51 -21 28 -21 38 -24 581 l-2 553 -77 29
c-43 16 -80 30 -83 32 -3 1 -4 -51 -1 -115 2 -65 4 -149 4 -187 0 -66 0 -68
14 -42 10 19 13 44 9 79 -4 29 -9 92 -13 140 l-6 88 24 -4 c13 -2 38 -9 54
-16 17 -6 36 -14 43 -16 9 -3 12 -116 12 -519 0 -322 4 -533 11 -564 10 -50
58 -110 96 -121 10 -3 264 -6 565 -8 544 -3 547 -3 593 18 30 14 56 36 73 63
l27 41 2 555 c2 305 3 630 3 723 l0 167 26 10 c47 18 92 61 114 108 38 80 30
121 -110 582 -18 58 -30 120 -31 160 -2 116 -33 179 -103 211 -38 17 -76 19
-576 19 -498 0 -538 -2 -575 -19z m-341 -1079 c6 -47 4 -60 -14 -84 -11 -15
-20 -43 -20 -63 0 -28 -5 -38 -22 -44 -34 -13 -55 3 -56 44 -1 20 -6 43 -11
52 -5 10 -5 25 1 39 7 14 7 28 -1 41 -8 15 -7 25 4 39 13 17 16 17 25 4 8 -13
10 -13 10 3 0 10 8 17 19 17 11 0 22 4 26 10 14 23 33 -5 39 -58z"/>
<path d="M1215 2755 c-5 -2 -22 -6 -37 -9 -57 -13 -109 -75 -122 -148 -6 -31
-4 -37 8 -32 8 3 17 21 20 39 8 43 50 94 93 111 42 18 223 19 246 2 9 -7 22
-31 29 -53 l13 -40 230 0 229 0 11 36 c19 69 25 71 155 67 91 -2 122 -7 143
-21 36 -23 67 -74 67 -109 0 -19 5 -28 16 -28 14 0 16 7 11 40 -6 49 -36 92
-85 122 -34 21 -48 23 -171 23 -130 -1 -135 -1 -150 -25 -9 -13 -16 -30 -16
-39 0 -21 -76 -42 -83 -23 -2 7 -8 12 -13 12 -6 0 -8 -3 -6 -7 3 -5 -46 -7
-108 -5 -97 3 -114 6 -118 20 -3 12 -5 10 -6 -5 -1 -25 -22 -30 -64 -14 -21 8
-43 50 -39 72 2 12 -221 25 -253 14z"/>
<path d="M1648 2713 c23 -2 61 -2 85 0 23 2 4 4 -43 4 -47 0 -66 -2 -42 -4z"/>
<path d="M1095 2560 c-9 -14 29 -20 160 -23 l120 -2 0 -45 c-1 -25 -4 -74 -8
-110 -17 -154 -30 -288 -31 -333 l-1 -47 -194 0 c-106 1 -196 -1 -199 -4 -3
-3 30 -6 74 -7 171 -2 289 -10 298 -19 16 -16 -14 -86 -58 -134 -42 -46 -79
-66 -121 -66 -13 0 -36 -11 -51 -25 -26 -24 -26 -27 -25 -136 2 -100 4 -113
23 -129 l21 -17 -22 -29 -22 -30 1 -543 c0 -431 3 -549 14 -575 15 -36 66 -83
99 -91 12 -3 254 -4 538 -3 l516 3 35 27 c71 54 68 17 68 797 0 795 8 726 -85
751 -64 18 -148 97 -164 155 -6 22 -7 43 -2 48 8 8 106 14 295 16 44 1 77 4
74 7 -4 3 -93 5 -200 4 l-193 -1 0 53 c0 29 -8 130 -17 223 -18 168 -22 228
-19 253 1 9 33 12 125 12 68 0 131 3 140 6 42 16 -9 24 -154 24 -145 0 -158
-1 -154 -17 4 -19 49 -452 59 -563 7 -82 35 -139 92 -189 l44 -40 -43 -4 -43
-4 49 -1 c28 -1 76 -7 108 -14 l58 -12 0 -704 c0 -689 0 -705 -20 -737 -41
-66 -34 -65 -592 -65 -481 0 -504 1 -535 20 -70 42 -68 25 -71 621 l-3 535 46
33 c44 32 45 32 28 57 -13 20 -21 24 -44 19 l-29 -7 0 116 0 116 28 0 c38 0
131 45 170 83 60 57 73 95 88 261 18 203 43 435 50 469 l6 27 -161 0 c-92 0
-162 -4 -166 -10z"/>
<path d="M1517 2538 c-3 -18 -17 -161 -33 -318 -33 -340 -32 -353 48 -425 54
-48 97 -65 169 -65 66 0 158 48 195 102 28 40 29 45 28 157 -1 64 -11 201 -23
305 -12 104 -21 209 -21 232 l0 44 -179 0 -178 0 -6 -32z m335 -68 c4 -36 16
-148 27 -250 11 -102 23 -193 26 -202 7 -17 -7 -18 -210 -18 -203 0 -217 1
-210 18 4 9 11 53 16 97 9 75 13 112 24 195 2 19 7 69 10 110 10 132 -5 121
164 118 l146 -3 7 -65z m36 -495 c22 -8 9 -76 -25 -127 -38 -56 -90 -82 -168
-82 -67 1 -89 10 -145 60 -47 42 -74 129 -47 149 16 11 355 12 385 0z"/>
<path d="M1215 1748 c-77 -42 -51 -148 36 -148 47 0 79 34 79 82 0 60 -62 95
-115 66z m58 -32 c12 -10 17 -24 15 -43 -3 -25 -7 -28 -37 -28 -41 0 -58 30
-35 64 17 24 32 26 57 7z"/>
<path d="M1448 1743 c17 -2 47 -2 65 0 17 2 3 4 -33 4 -36 0 -50 -2 -32 -4z"/>
<path d="M2145 1662 c-29 -24 -11 -62 28 -62 15 0 26 4 22 9 -3 5 -1 12 5 16
13 8 13 25 1 25 -5 0 -13 -9 -16 -20 -7 -22 -31 -27 -38 -7 -2 6 2 20 11 30
21 23 12 29 -13 9z"/>
<path d="M1193 1553 c-25 -5 -40 -33 -18 -33 8 0 15 -4 15 -8 0 -15 52 -5 62
12 5 10 8 19 6 21 -8 7 -45 12 -65 8z"/>
<path d="M521 1495 c-30 -72 -61 -180 -61 -212 0 -47 25 -81 66 -89 l34 -6 0
-61 c0 -68 8 -72 14 -8 2 23 11 53 20 66 l16 25 -45 0 c-35 0 -52 6 -70 25
-14 13 -25 31 -25 39 0 8 16 60 36 116 19 56 33 110 31 119 -3 11 -7 7 -16
-14z"/>
<path d="M593 1340 c-12 -32 -8 -40 20 -40 16 0 18 5 12 28 -10 41 -20 45 -32
12z"/>
<path d="M1189 1291 c-35 -36 -37 -70 -5 -107 18 -21 32 -28 60 -28 76 0 110
90 52 140 -37 32 -71 30 -107 -5z m82 -30 c22 -18 22 -19 6 -45 -20 -30 -39
-33 -61 -10 -21 21 -20 51 2 63 23 14 26 14 53 -8z"/>
<path d="M2117 1313 c18 -2 50 -2 70 0 21 2 7 4 -32 4 -38 0 -55 -2 -38 -4z"/>
<path d="M670 1301 c-17 -12 -24 -58 -9 -66 14 -9 11 -25 -5 -25 -8 0 -18 -5
-22 -12 -5 -8 3 -9 28 -5 23 3 43 0 56 -9 19 -13 24 -12 56 17 20 17 36 35 36
39 0 9 -40 21 -41 12 -6 -55 -12 -59 -54 -36 -26 14 -35 25 -35 45 l0 27 68
-5 c51 -4 64 -3 56 6 -15 16 -115 25 -134 12z"/>
<path d="M1500 1299 c47 -4 123 -7 170 -7 l85 1 -60 7 c-33 4 -109 8 -170 7
l-110 0 85 -8z"/>
<path d="M2150 1220 c0 -5 -7 -10 -15 -10 -12 0 -13 -4 -6 -19 6 -10 7 -21 4
-25 -3 -3 8 -6 26 -6 18 0 30 4 26 9 -3 5 -1 12 5 16 15 9 12 25 -5 25 -8 0
-15 5 -15 10 0 6 -4 10 -10 10 -5 0 -10 -4 -10 -10z"/>
<path d="M1816 885 c-3 -9 1 -18 10 -22 19 -7 28 2 21 22 -8 19 -23 19 -31 0z"/>
<path d="M2105 890 c-4 -6 19 -10 62 -9 52 1 61 3 38 9 -45 11 -93 11 -100 0z"/>
<path d="M1192 867 c-50 -53 -13 -137 59 -137 71 0 108 92 57 140 -31 28 -88
27 -116 -3z m77 -17 c25 -13 33 -37 21 -61 -12 -21 -50 -25 -68 -7 -18 18 -15
55 6 67 21 13 20 13 41 1z"/>
<path d="M1420 880 c0 -5 67 -10 160 -12 169 -3 212 5 83 16 -112 9 -243 7
-243 -4z"/>
<path d="M2142 791 c-9 -5 -11 -17 -6 -34 5 -22 12 -27 35 -27 22 0 29 5 29
20 0 11 0 23 1 27 0 4 -4 9 -10 11 -6 2 -8 -3 -5 -12 4 -10 0 -18 -10 -22 -24
-9 -32 4 -18 26 13 21 6 25 -16 11z"/>
<path d="M616 438 c-16 -167 0 -225 76 -276 l40 -26 19 23 c11 13 19 31 19 42
0 14 9 19 41 21 63 5 73 29 27 71 -36 32 -36 33 -31 99 8 97 -6 120 -23 38 -7
-36 -13 -82 -13 -102 -1 -33 -4 -38 -25 -38 -14 0 -28 -4 -31 -10 -3 -6 -18
-10 -31 -10 -16 0 -24 -5 -22 -12 6 -18 36 -22 54 -7 9 7 23 14 32 15 8 2 18
8 23 15 6 10 15 9 45 -2 43 -16 57 -39 22 -37 -13 1 -43 1 -67 0 -35 -2 -42
-5 -37 -18 29 -75 10 -84 -49 -24 -36 37 -40 46 -41 93 -1 57 -14 210 -19 215
-1 2 -6 -30 -9 -70z"/>
<path d="M2095 490 c-14 -6 2 -9 50 -9 49 -1 65 2 55 9 -18 12 -78 12 -105 0z"/>
<path d="M1395 480 c-2 -4 66 -10 152 -13 141 -6 175 -5 162 7 -8 7 -309 14
-314 6z"/>
<path d="M680 445 l-25 -15 33 3 c18 1 33 7 33 12 1 15 -14 15 -41 0z"/>
<path d="M695 413 c-38 -9 -40 -23 -2 -23 26 0 37 4 37 15 0 16 -2 16 -35 8z"/>
</g>
</svg>
